HIERARCHY
ROOT pelvis
{
	OFFSET 0.00 0.00 0.00
	CHANNELS 6 Xposition Yposition Zposition Xrotation Yrotation Zrotation
	JOINT lfemur
	{
		OFFSET 0.00000 4.04436 0.00000
		CHANNELS 3 Xrotation Yrotation Zrotation
		JOINT ltibia
		{
			OFFSET 0.00000 0.00000 -16.29375
			CHANNELS 3 Xrotation Yrotation Zrotation
			JOINT lfoot
			{
				OFFSET 0.00000 0.00000 -15.07135
				CHANNELS 3 Xrotation Yrotation Zrotation
				JOINT ltoes
				{
					OFFSET 4.08523 0.00000 0.00000
					CHANNELS 3 Xrotation Yrotation Zrotation
				}
			}
		}
	}
	JOINT rfemur
	{
		OFFSET 0.00000 -4.04436 0.00000
		CHANNELS 3 Xrotation Yrotation Zrotation
		JOINT rtibia
		{
			OFFSET 0.00000 0.00000 -16.29375
			CHANNELS 3 Xrotation Yrotation Zrotation
			JOINT rfoot
			{
				OFFSET 0.00000 0.00000 -15.07135
				CHANNELS 3 Xrotation Yrotation Zrotation
				JOINT rtoes
				{
					OFFSET 4.08523 0.00000 0.00000
					CHANNELS 3 Xrotation Yrotation Zrotation
				}
			}
		}
	}
	JOINT thorax
	{
		OFFSET -1.96850 0.00000 3.38723
		CHANNELS 6 Xposition Yposition Zposition Xrotation Yrotation Zrotation
		JOINT head
		{
			OFFSET 0.00000 0.00000 16.93583
			CHANNELS 6 Xposition Yposition Zposition Xrotation Yrotation Zrotation
		}
		JOINT lclavicle
		{
			OFFSET 0.00000 0.00000 14.46426
			CHANNELS 3 Xrotation Yrotation Zrotation
			JOINT lhumerus
			{
				OFFSET 0.00000 6.07503 0.73740
				CHANNELS 3 Xrotation Yrotation Zrotation
				JOINT lradius
				{
					OFFSET 0.00000 0.00000 -10.44175
					CHANNELS 3 Xrotation Yrotation Zrotation
					JOINT lhand
					{
						OFFSET 0.00000 0.00000 -9.67100
						CHANNELS 3 Xrotation Yrotation Zrotation
					}
				}
			}
		}
		JOINT rclavicle
		{
			OFFSET 0.00000 0.00000 14.46426
			CHANNELS 3 Xrotation Yrotation Zrotation
			JOINT rhumerus
			{
				OFFSET 0.00000 -6.07503 0.73740
				CHANNELS 3 Xrotation Yrotation Zrotation
				JOINT rradius
				{
					OFFSET 0.00000 0.00000 -10.44175
					CHANNELS 3 Xrotation Yrotation Zrotation
					JOINT rhand
					{
						OFFSET 0.00000 0.00000 -9.67100
						CHANNELS 3 Xrotation Yrotation Zrotation
					}
				}
			}
		}
	}
}
MOTION
Frames: 22
Frame Time:	0.0333333
 43.9014 13.7374 31.0354 -3.3189 -2.9257 -101.3288 -3.6101 -17.3514 15.8177 -0.0000 41.4574 0.0000 -0.0000 -0.1817 12.1738 0.0000 -18.5276 -0.0000 2.5036 -18.6554 14.7864 -0.0000 44.7946 0.0000 -0.0000 -3.4989 -12.0288 0.0000 -18.8814 -0.0000 44.1508 16.2349 35.3233 4.8619 16.9234 9.8488 40.5775 12.3756 51.5541 -13.6866 -24.2953 4.7993 -13.3270 0.0000 -5.6008 12.0357 6.4878 34.6780 0.0000 -77.1206 -13.0649 29.3725 3.0887 0.0000 13.8468 0.0000 7.1420 -20.1040 1.2571 14.8657 0.0000 -79.5820 20.9293 -3.0341 -14.0884 0.0000
 43.4343 13.4364 31.9642 -3.1633 -1.8039 -105.4270 -0.8700 -11.7143 22.6584 -0.0000 32.8035 0.0000 -0.0000 4.5915 8.0946 0.0000 -21.6010 -0.0000 4.1516 -13.6449 19.4046 -0.0000 35.3342 -0.0000 -0.0000 2.0648 -11.9742 0.0000 -19.9069 0.0000 44.0523 15.8742 36.1808 1.7063 15.7428 12.4598 41.6283 12.4411 52.5656 -7.4607 -23.1504 3.8517 -14.3599 0.0000 -7.0604 12.7124 8.9920 19.2133 0.0000 -74.4552 -19.9981 24.0020 1.5043 0.0000 14.0682 -0.0000 6.6115 -20.4608 7.7096 4.8647 -0.0000 -70.6873 17.4386 -1.4323 -13.5665 0.0000
 43.1274 13.2043 32.7602 -1.0898 -0.3762 -105.8388 0.5431 -8.8669 23.4933 -0.0000 25.0314 0.0000 0.0000 9.1479 4.9808 0.0000 -25.0876 -0.0000 4.5189 -10.2078 18.9167 -0.0000 25.2115 0.0000 -0.0000 8.7508 -10.2223 0.0000 -22.4352 0.0000 43.8690 15.5315 36.9555 0.0120 12.4294 11.1940 42.7616 12.4003 53.3819 -0.9154 -21.9553 2.5643 -14.6302 0.0000 -7.7711 14.2655 9.7037 4.5378 0.0000 -78.3727 -31.2113 15.5215 -1.7980 0.0000 12.7120 -0.0000 5.9017 -19.2954 11.9822 -7.5620 0.0000 -65.2512 12.2178 -1.5368 -14.6361 0.0000
 43.0221 13.0613 33.2264 2.5244 0.9199 -102.4356 1.2405 -10.0305 17.9832 -0.0000 20.4362 0.0000 0.0000 11.6481 4.5100 0.0000 -26.5314 -0.0000 4.3625 -9.6464 12.3591 -0.0000 17.5491 0.0000 0.0000 14.4764 -5.8831 0.0000 -24.2810 0.0000 43.6942 15.2087 37.3971 -0.5361 7.6195 5.6549 43.7774 12.2968 53.7866 3.7716 -20.4356 0.6275 -14.2343 0.0000 -7.7264 16.7259 7.6035 -7.6178 0.0000 -86.5335 -34.3359 9.7734 -4.7647 0.0000 11.5022 0.0000 5.2162 -19.0186 15.0575 -20.8607 -0.0000 -64.3459 14.3602 -2.7287 -13.7029 -0.0000
 42.7691 12.9874 33.3812 4.0039 1.7709 -101.8577 2.2570 -9.8876 17.3341 -0.0000 17.6399 -0.0000 -0.0000 12.6932 4.1955 0.0000 -25.6784 -0.0000 4.9541 -8.8375 10.2572 -0.0000 13.4299 0.0000 0.0000 17.5300 -3.2789 0.0000 -24.5768 -0.0000 43.5362 14.9674 37.4634 -2.3313 5.0884 2.9151 44.6481 12.1763 53.8414 7.1218 -18.8082 -1.6083 -13.7828 0.0000 -8.1327 19.1871 3.1087 -14.8962 180.0000 -85.3130 137.2170 13.5235 -5.3289 0.0000 11.1671 0.0000 4.7785 -20.9190 16.9910 -33.2371 -0.0000 -66.1071 15.5491 -2.9890 -11.3285 -0.0000
 42.5128 12.9493 33.2965 3.5557 2.4259 -101.6349 2.7531 -8.6357 16.8551 -0.0000 16.3196 0.0000 0.0000 11.8223 5.0429 0.0000 -22.5315 -0.0000 5.5060 -6.9485 9.0363 -0.0000 11.0208 0.0000 0.0000 17.8072 -2.3525 0.0000 -24.5271 -0.0000 43.3792 14.8266 37.2699 -4.5380 4.6705 0.6293 45.3988 12.1126 53.6706 9.8443 -16.7876 -3.3370 -13.2560 0.0000 -8.9457 21.0641 -3.1720 -17.5992 180.0000 -77.8172 137.8947 16.5302 -4.2385 -0.0000 10.9236 -0.0000 5.0471 -24.2392 17.5528 -43.9627 -0.0000 -67.1861 13.4113 -3.8901 -11.7599 0.0000
 42.3045 12.8801 33.1547 1.6537 2.6587 -101.8580 2.4173 -6.2941 15.3895 -0.0000 15.6730 -0.0000 0.0000 10.7777 7.0052 0.0000 -20.7606 0.0000 5.5701 -4.0283 7.9670 -0.0000 9.4083 0.0000 0.0000 16.5128 -1.8543 0.0000 -22.9834 -0.0000 43.1512 14.7037 37.0030 -7.3712 5.5448 -0.5648 46.0515 12.1188 53.4205 12.2193 -14.2910 -4.7438 -11.8852 0.0000 -9.8429 21.6007 -9.6967 -17.8892 180.0000 -71.5925 143.8867 19.6050 -4.0539 -0.0000 10.9318 -0.0000 5.2647 -27.6514 17.5855 -52.7073 -0.0000 -67.7957 11.9157 -5.5976 -11.0216 -0.0000
 42.0746 12.8063 33.1247 0.8346 2.7733 -103.1038 2.6012 -4.9378 15.5018 -0.0000 15.3537 0.0000 0.0000 10.6130 8.0918 0.0000 -20.8900 -0.0000 6.0972 -2.5220 9.2550 -0.0000 8.3168 0.0000 -0.0000 16.5478 -3.1234 0.0000 -21.8778 -0.0000 42.9517 14.6001 36.8697 -9.6918 5.3184 -0.2904 46.5909 12.1050 53.2235 13.8559 -12.3743 -6.1767 -11.0628 0.0000 -10.3956 21.5046 -15.3755 -16.8916 180.0000 -68.1454 137.8537 22.1051 -3.5354 -0.0000 11.0515 -0.0000 5.5732 -29.7336 17.5834 -60.7433 0.0000 -68.8522 11.0314 -5.8240 -10.3282 -0.0000
 41.8332 12.6924 33.1910 1.0759 2.9129 -105.2473 3.3149 -4.0925 17.6626 -0.0000 14.6801 -0.0000 0.0000 10.9798 7.7430 0.0000 -21.3820 -0.0000 6.9593 -2.8965 10.6325 -0.0000 9.0149 0.0000 -0.0000 17.0584 -3.8909 0.0000 -21.5809 -0.0000 42.7328 14.4915 36.8941 -11.6344 3.9796 0.2596 47.0315 12.0513 53.0934 15.2877 -10.9369 -6.8889 -10.3568 0.0000 -9.5328 20.4700 -18.9570 -16.1906 -180.0000 -65.4734 134.6799 23.5792 -3.1037 0.0000 11.2940 -0.0000 5.9609 -30.4023 17.4790 -66.3787 -0.0000 -70.3122 10.1786 -6.0610 -10.3689 0.0000
 41.6250 12.6636 33.2083 2.0147 3.1517 -106.9291 4.4374 -5.2356 18.3691 -0.0000 16.3809 0.0000 -0.0000 10.4635 8.5208 0.0000 -21.9517 -0.0000 8.2598 -4.9423 11.4503 -0.0000 11.6202 -0.0000 0.0000 16.9206 -4.6833 0.0000 -21.8472 -0.0000 42.5198 14.3820 36.9349 -12.8853 2.2134 -0.1870 47.3469 11.9600 52.9629 16.1315 -10.0170 -6.9812 -9.8735 0.0000 -8.2811 19.2281 -19.7140 -15.7283 -180.0000 -62.2331 137.9844 24.8733 -3.4544 0.0000 11.3557 -0.0000 5.7290 -29.8572 16.9354 -68.7157 0.0000 -72.6085 9.1146 -7.6128 -9.9475 -0.0000
 41.4707 12.7313 33.0634 2.0097 3.6194 -107.5460 5.5222 -7.7977 15.9432 -0.0000 22.0172 0.0000 0.0000 8.6132 11.6016 0.0000 -21.6854 -0.0000 9.7547 -7.0725 12.6606 -0.0000 16.3183 -0.0000 0.0000 15.1596 -6.0598 0.0000 -21.1400 -0.0000 42.3674 14.3415 36.8512 -13.6457 2.1343 -1.2208 47.5133 11.8148 52.7280 16.0430 -10.2899 -6.8963 -10.0373 -0.0000 -7.7737 18.7512 -18.2382 -15.0007 -180.0000 -58.7591 138.4954 26.8442 -3.4875 0.0000 11.3896 -0.0000 5.2148 -28.2241 16.3361 -69.3627 0.0000 -76.1442 8.1426 -9.2275 -9.3587 -0.0000
 41.3382 12.8590 32.6690 1.5550 4.6125 -107.4815 7.2793 -11.4412 14.4393 -0.0000 30.4991 0.0000 0.0000 5.8971 13.5911 0.0000 -21.9232 -0.0000 11.8969 -9.4180 14.5023 -0.0000 22.6976 0.0000 0.0000 12.0153 -7.6509 0.0000 -20.4103 -0.0000 42.2660 14.4327 36.5366 -13.6554 3.5117 -2.4174 47.5150 11.6147 52.3061 15.1291 -12.0628 -6.3982 -10.0894 0.0000 -8.2494 18.4412 -15.0853 -14.2241 180.0000 -55.3554 137.3514 30.2339 -3.6558 -0.0000 11.7299 -0.0000 4.5689 -26.2338 15.6424 -68.8107 0.0000 -80.8499 6.7460 -11.2993 -8.2037 -0.0000
 41.2513 12.9743 32.0881 0.3072 5.1940 -107.5925 8.7249 -13.7630 15.3397 -0.0000 37.9779 0.0000 -0.0000 3.1209 13.7126 0.0000 -22.3820 0.0000 13.4226 -11.6188 14.8363 -0.0000 30.0020 0.0000 0.0000 7.9037 -8.3094 0.0000 -20.4497 0.0000 42.2418 14.5768 35.9896 -13.6572 5.7181 -3.1000 47.3780 11.4032 51.7566 13.2024 -14.4953 -5.3980 -10.9354 0.0000 -8.9108 18.7928 -10.9912 -13.7787 -180.0000 -52.8354 136.9681 34.8020 -4.0614 0.0000 12.0950 0.0000 4.6740 -23.6088 15.4885 -68.3151 0.0000 -87.0330 4.4998 -13.7477 -7.5318 -0.0000
 41.1970 13.0650 31.5280 -0.7693 5.2480 -108.2397 9.7448 -14.7271 17.5344 -0.0000 42.6658 0.0000 -0.0000 0.2358 13.0794 0.0000 -22.3070 0.0000 14.1388 -13.4227 14.2737 -0.0000 35.7967 0.0000 0.0000 3.8200 -8.3291 0.0000 -19.3602 -0.0000 42.2457 14.6945 35.4106 -13.8550 7.4109 -3.3303 47.1988 11.2258 51.2637 11.2448 -16.7195 -3.6620 -11.8083 0.0000 -8.4727 18.3403 -7.1230 -14.3640 -180.0000 -52.2835 135.8814 39.6877 -4.4373 0.0000 12.4990 -0.0000 4.5934 -20.9771 14.7456 -67.4242 180.0000 -86.7880 -177.3886 -15.2627 -7.5286 -0.0000
 41.1710 13.0904 31.3068 -0.9168 4.9730 -109.6711 10.2213 -14.8165 19.6056 -0.0000 43.9753 0.0000 -0.0000 -1.0656 12.9356 0.0000 -21.9959 -0.0000 14.3254 -14.0401 14.9138 -0.0000 37.4838 0.0000 0.0000 1.9072 -7.9877 0.0000 -18.3574 -0.0000 42.2331 14.8058 35.1385 -14.3951 7.8543 -2.4482 47.0535 11.0540 51.0106 10.1870 -18.7832 -1.9405 -12.1792 0.0000 -8.0221 16.7756 -4.4428 -14.7269 180.0000 -52.7150 135.1832 43.0774 -4.6371 -0.0000 13.0455 -0.0000 4.1077 -18.4749 13.7631 -65.9919 180.0000 -82.2544 -177.9367 -17.3088 -7.9927 -0.0000
 41.1385 13.0669 31.5160 -0.3510 4.7717 -110.4409 10.1235 -14.2884 20.1995 -0.0000 42.0503 0.0000 -0.0000 -0.0526 12.9886 0.0000 -21.9378 -0.0000 14.2127 -13.3613 15.6414 -0.0000 35.0301 -0.0000 0.0000 3.1899 -7.9714 0.0000 -18.3518 -0.0000 42.1793 14.8667 35.3563 -14.7980 7.4469 -1.7909 46.9738 10.9169 51.1867 9.5773 -20.2554 -0.5326 -12.7814 0.0000 -7.7957 16.4282 -4.1130 -14.6745 -180.0000 -52.2811 137.5142 46.0401 -5.1833 -0.0000 13.6018 -0.0000 4.1173 -16.5000 13.9160 -64.0922 180.0000 -80.1645 -178.1337 -19.3518 -7.6429 -0.0000
 41.1392 12.9949 32.0557 0.4493 4.6257 -109.9110 9.1991 -12.7017 19.3483 -0.0000 36.7065 0.0000 -0.0000 2.5921 12.7604 0.0000 -21.7117 0.0000 13.1484 -11.1131 14.9058 -0.0000 28.5743 0.0000 -0.0000 6.7962 -7.4806 0.0000 -18.6725 -0.0000 42.1167 14.7912 35.8980 -14.6921 6.4591 -2.2359 46.9471 10.8652 51.7179 8.8845 -20.4528 0.8340 -12.9745 0.0000 -7.4679 17.0482 -6.1812 -13.9041 -180.0000 -51.2159 136.3138 48.7657 -5.3337 -0.0000 13.4223 -0.0000 4.2781 -15.5022 14.4204 -61.5854 180.0000 -80.0858 -179.0929 -20.9729 -7.2410 -0.0000
 41.2298 12.8820 32.6476 1.3580 4.2747 -108.8525 7.7310 -10.5423 18.2829 -0.0000 29.6666 0.0000 -0.0000 5.8868 12.2124 0.0000 -21.4392 -0.0000 11.3166 -8.1130 13.0972 -0.0000 20.1219 0.0000 0.0000 11.5644 -6.2502 0.0000 -19.3927 0.0000 42.1130 14.6478 36.4971 -14.1728 5.1780 -2.7794 46.8844 10.9042 52.3426 7.5222 -20.1298 2.2493 -12.9013 0.0000 -7.5028 17.9527 -10.0026 -11.9701 -180.0000 -50.2254 133.8777 49.4654 -5.0738 0.0000 12.9623 -0.0000 4.3045 -15.8666 14.3800 -59.7137 180.0000 -80.2753 179.5943 -21.2951 -7.0666 -0.0000
 41.3965 12.7969 33.0436 2.5273 3.5530 -107.9382 6.2351 -9.2446 17.9345 -0.0000 23.7398 0.0000 0.0000 8.6417 11.3199 0.0000 -21.2162 0.0000 9.4389 -5.9582 11.3938 -0.0000 12.7686 0.0000 0.0000 15.5110 -4.6403 0.0000 -20.0162 -0.0000 42.1685 14.5313 36.9129 -13.5345 3.6178 -2.9958 46.7345 10.9525 52.8155 6.0013 -20.2520 3.8348 -12.3909 -0.0000 -7.4791 18.6356 -15.1874 -9.1806 -180.0000 -50.3913 133.3542 47.3828 -5.0676 0.0000 12.3113 -0.0000 4.6560 -17.4419 13.6569 -59.3224 180.0000 -80.5658 179.0568 -19.6838 -6.9701 -0.0000
 41.5864 12.7823 33.1891 3.5537 2.9020 -107.1551 5.1786 -9.0710 18.0689 -0.0000 20.3679 -0.0000 -0.0000 10.0635 10.2015 -0.0000 -21.0473 -0.0000 8.0255 -4.7280 8.8643 -0.0000 7.6002 0.0000 0.0000 17.5320 -2.2518 0.0000 -19.5996 -0.0000 42.2914 14.4833 37.0503 -12.5738 2.4349 -2.3588 46.5552 10.9997 53.0500 4.6853 -20.7236 4.6811 -11.5281 0.0000 -7.8268 19.1245 -20.7707 -5.9667 180.0000 -52.7821 132.9972 44.6939 -4.7721 0.0000 11.4458 -0.0000 5.0623 -19.9466 12.7237 -60.0104 180.0000 -81.3686 -179.8637 -18.0162 -7.0812 -0.0000
 41.7850 12.8147 33.1656 3.7961 2.3090 -106.3231 4.1279 -8.8292 18.3089 -0.0000 18.4399 0.0000 0.0000 10.2383 8.9885 0.0000 -20.5105 0.0000 6.8866 -3.7003 6.3980 -0.0000 4.3614 -0.0000 0.0000 18.0154 -0.6196 0.0000 -18.9919 -0.0000 42.3812 14.4935 37.0189 -12.0100 2.1385 -1.0942 46.3800 11.0721 53.1541 3.8021 -21.1111 4.7973 -10.7269 0.0000 -7.8614 19.7966 -26.1018 -3.5085 -180.0000 -57.7703 132.7683 41.9728 -4.4358 0.0000 10.7658 -0.0000 5.5458 -22.7785 12.2680 -61.0080 180.0000 -83.4032 -177.6160 -16.9366 -6.7661 -0.0000
 41.9870 12.7882 33.1428 2.4003 1.7641 -105.6851 2.5461 -6.4007 18.8312 -0.0000 15.6644 -0.0000 0.0000 10.7271 7.5721 0.0000 -20.2652 0.0000 5.5847 -2.1120 5.1846 -0.0000 3.4986 0.0000 0.0000 17.5446 -0.2840 0.0000 -19.0571 -0.0000 42.4411 14.5376 36.9843 -12.1365 3.3813 0.9501 46.2259 11.1902 53.2582 3.0368 -21.1879 4.4235 -10.0024 0.0000 -7.8880 20.3408 -29.8786 -1.6796 -180.0000 -64.9644 131.8706 38.0078 -4.1132 0.0000 10.1962 -0.0000 5.7948 -24.9638 12.2214 -61.6201 180.0000 -86.9605 -175.5688 -15.6365 -6.4220 0.0000
